<svg xmlns="http://www.w3.org/2000/svg" xmlns:xlink="http://www.w3.org/1999/xlink"><symbol stroke="currentColor" stroke-width="1.5" viewBox="0 0 24 24" fill="currentColor" id="arrow-down"><path stroke-linecap="round" stroke-linejoin="round" d="M19.5 13.5 12 21m0 0-7.5-7.5M12 21V3"/></symbol><symbol stroke="currentColor" stroke-width="1.5" viewBox="0 0 24 24" fill="currentColor" id="arrow-down-left"><path stroke-linecap="round" stroke-linejoin="round" d="m19.5 4.5-15 15m0 0h11.25m-11.25 0V8.25"/></symbol><symbol stroke="currentColor" stroke-width="1.5" viewBox="0 0 24 24" fill="currentColor" id="arrow-down-right"><path stroke-linecap="round" stroke-linejoin="round" d="m4.5 4.5 15 15m0 0V8.25m0 11.25H8.25"/></symbol><symbol stroke="currentColor" stroke-width="1.5" viewBox="0 0 24 24" fill="currentColor" id="arrow-up"><path stroke-linecap="round" stroke-linejoin="round" d="M4.5 10.5 12 3m0 0 7.5 7.5M12 3v18"/></symbol><symbol stroke="currentColor" stroke-width="1.5" viewBox="0 0 24 24" fill="currentColor" id="arrow-up-left"><path stroke-linecap="round" stroke-linejoin="round" d="m19.5 19.5-15-15m0 0v11.25m0-11.25h11.25"/></symbol><symbol stroke="currentColor" stroke-width="1.5" viewBox="0 0 24 24" fill="currentColor" id="arrow-up-right"><path stroke-linecap="round" stroke-linejoin="round" d="m4.5 19.5 15-15m0 0H8.25m11.25 0v11.25"/></symbol></svg>